<svg width="60" height="61" viewBox="0 0 60 61" fill="none" xmlns="http://www.w3.org/2000/svg">
<g clip-path="url(#clip0)">
<path d="M41.553 12.6598L42.3193 12.0851C43.6847 11.0611 43.9614 9.12414 42.9374 7.75874C41.9134 6.39336 39.9764 6.11661 38.611 7.1406L37.8448 7.71526C37.1784 8.21469 36.2766 8.26348 35.5599 7.83899C34.8432 7.4145 34.4529 6.60022 34.5701 5.77588L34.7053 4.8288C34.9464 3.13935 33.7725 1.57423 32.0831 1.33286C30.3934 1.09146 28.828 2.26562 28.5867 3.95533L28.4517 4.90125C28.3345 5.72659 27.7314 6.39954 26.9242 6.60625C26.117 6.81347 25.2645 6.51371 24.7645 5.8468L24.1904 5.0811C23.1664 3.71547 21.2292 3.43864 19.8638 4.46281C18.4987 5.48668 18.2219 7.42319 19.2454 8.78852L19.82 9.55505C20.3194 10.222 20.3682 11.1233 19.9437 11.84C19.5193 12.5567 18.705 12.947 17.8806 12.8298L16.9333 12.6945C15.2439 12.4534 13.6789 13.6272 13.4374 15.3164C13.1959 17.0062 14.3701 18.5718 16.06 18.813L17.007 18.9482C17.8319 19.0659 18.5048 19.6689 18.7115 20.4761C18.9182 21.2834 18.6185 22.1359 17.9516 22.6358L17.1859 23.2102C15.8207 24.2343 15.5442 26.1713 16.5682 27.5366C17.5922 28.9018 19.5291 29.1786 20.8945 28.1547L21.6598 27.5808C22.3262 27.0809 23.2285 27.0316 23.9457 27.4561C24.6624 27.8806 25.0532 28.6953 24.9355 29.5202L24.7997 30.4633C24.5562 32.1538 25.7302 33.7213 27.421 33.9629C29.1093 34.2043 30.6739 33.0323 30.917 31.3442L31.0539 30.3928C31.1716 29.568 31.7747 28.8955 32.5819 28.6888C33.3891 28.4816 34.2416 28.7819 34.7411 29.4483L35.3162 30.2147C36.3403 31.5795 38.2767 31.8559 39.6417 30.8321C41.0072 29.8079 41.2836 27.8706 40.259 26.5054L39.6846 25.74C39.1846 25.0736 39.1354 24.1713 39.5599 23.4541C39.9843 22.7374 40.7991 22.3466 41.624 22.4648L42.571 22.6001C44.2604 22.8415 45.8257 21.6676 46.0673 19.9782C46.3088 18.2885 45.1348 16.723 43.4451 16.4816L42.4986 16.3464C41.6743 16.2282 41.0018 15.6257 40.7946 14.8184C40.5879 14.0117 40.8871 13.1597 41.553 12.6598ZM29.7528 24.8573C25.7704 24.8573 22.5425 21.6294 22.5425 17.647C22.5425 13.6652 25.7704 10.4367 29.7528 10.4367C33.7352 10.4367 36.9631 13.6652 36.9631 17.647C36.9631 21.6294 33.7352 24.8573 29.7528 24.8573Z" fill="url(#paint0_linear)"/>
<path d="M55.9457 35.9375L56.5346 35.4959C57.5841 34.7088 57.7968 33.2201 57.0097 32.1706C56.2227 31.1212 54.7339 30.9085 53.6845 31.6955L53.0956 32.1372C52.5834 32.5211 51.8903 32.5586 51.3394 32.2323C50.7885 31.906 50.4886 31.2802 50.5786 30.6466L50.6826 29.9187C50.8679 28.6202 49.9656 27.4172 48.6671 27.2317C47.3685 27.0462 46.1653 27.9486 45.9799 29.2473L45.8761 29.9744C45.786 30.6087 45.3225 31.1259 44.7021 31.2848C44.0816 31.4441 43.4264 31.2137 43.0422 30.7011L42.6009 30.1126C41.8139 29.063 40.3249 28.8502 39.2755 29.6374C38.2263 30.4243 38.0135 31.9127 38.8002 32.9621L39.2418 33.5513C39.6257 34.0638 39.6632 34.7566 39.3369 35.3074C39.0107 35.8583 38.3848 36.1583 37.7512 36.0682L37.0231 35.9642C35.7247 35.7789 34.5218 36.6811 34.3362 37.9794C34.1505 39.2782 35.0531 40.4815 36.3519 40.6669L37.0798 40.7708C37.7137 40.8612 38.231 41.3247 38.3898 41.9451C38.5487 42.5656 38.3183 43.2208 37.8057 43.6051L37.2173 44.0465C36.168 44.8337 35.9554 46.3224 36.7425 47.3718C37.5296 48.4211 39.0182 48.6338 40.0677 47.8469L40.6559 47.4058C41.1681 47.0215 41.8616 46.9836 42.4128 47.3099C42.9637 47.6362 43.264 48.2624 43.1736 48.8964L43.0692 49.6212C42.882 50.9206 43.7844 52.1253 45.0839 52.3111C46.3815 52.4966 47.5841 51.5957 47.7709 50.2983L47.8762 49.5671C47.9666 48.9331 48.4301 48.4163 49.0505 48.2574C49.671 48.0981 50.3262 48.3289 50.7101 48.8411L51.1521 49.4302C51.9392 50.4792 53.4276 50.6916 54.4767 49.9047C55.5262 49.1175 55.7386 47.6285 54.9512 46.5793L54.5096 45.9909C54.1254 45.4787 54.0875 44.7852 54.4138 44.234C54.74 43.6831 55.3663 43.3828 56.0002 43.4736L56.7281 43.5776C58.0266 43.7631 59.2297 42.8609 59.4153 41.5624C59.601 40.2638 58.6986 39.0605 57.4 38.875L56.6725 38.7711C56.0389 38.6802 55.522 38.2171 55.3628 37.5967C55.2039 36.9766 55.4339 36.3218 55.9457 35.9375ZM46.8761 45.3125C43.8153 45.3125 41.3343 42.8315 41.3343 39.7707C41.3343 36.7103 43.8153 34.2289 46.8761 34.2289C49.9369 34.2289 52.4179 36.7103 52.4179 39.7707C52.4179 42.8315 49.9369 45.3125 46.8761 45.3125Z" fill="#3FC0AD"/>
<circle opacity="0.7" cx="26.7766" cy="29.0207" r="15.3" fill="url(#paint1_linear)"/>
<path fill-rule="evenodd" clip-rule="evenodd" d="M12.4312 29.0089C12.4312 37.0094 18.9058 43.3997 26.7743 43.3997C34.6427 43.3997 41.1174 37.0094 41.1174 29.0089C41.1174 21.0083 34.6427 14.618 26.7743 14.618C18.9058 14.618 12.4312 21.0083 12.4312 29.0089ZM16.6895 45.2516C19.6172 47.0711 23.073 48.122 26.7743 48.122C37.3363 48.122 45.8984 39.5647 45.8984 29.0089C45.8984 18.453 37.3363 9.89575 26.7743 9.89575C16.2123 9.89575 7.65014 18.453 7.65014 29.0089C7.65014 34.2766 9.78243 39.0466 13.2315 42.5038L-0.00156403 59.5899C1.48653 61.3727 4.2429 61.3223 5.66478 59.4864L16.6895 45.2516Z" fill="#FC7370"/>
<rect x="12.6836" y="41.9121" width="6.42781" height="3.32504" rx="1" transform="rotate(39.0466 12.6836 41.9121)" fill="#4F586B"/>
</g>
<defs>
<linearGradient id="paint0_linear" x1="44.4106" y1="30.5468" x2="16.2851" y2="7.57383" gradientUnits="userSpaceOnUse">
<stop stop-color="#FFC20A"/>
<stop offset="1" stop-color="#FFEFBE"/>
<stop offset="1" stop-color="#FFFAEC"/>
</linearGradient>
<linearGradient id="paint1_linear" x1="43.88" y1="38.6298" x2="14.4786" y2="19.8171" gradientUnits="userSpaceOnUse">
<stop stop-color="#9DC8FF"/>
<stop offset="1" stop-color="#B3D0F2" stop-opacity="0.02"/>
</linearGradient>
<clipPath id="clip0">
<rect width="60" height="60" fill="white" transform="translate(0 0.895752)"/>
</clipPath>
</defs>
</svg>
