<svg width="59" height="58" viewBox="0 0 59 58" fill="none" xmlns="http://www.w3.org/2000/svg">
<path opacity="0.5" d="M8.06592 28.5183C8.06592 26.8615 9.40906 25.5183 11.0659 25.5183H29.9231C31.5799 25.5183 32.9231 26.8615 32.9231 28.5183V47.3755C32.9231 49.0323 31.5799 50.3755 29.9231 50.3755H11.0659C9.40907 50.3755 8.06592 49.0323 8.06592 47.3755V28.5183Z" fill="#3FC0AD"/>
<path opacity="0.5" d="M36.0659 35.5183C36.0659 33.8615 37.4091 32.5183 39.0659 32.5183H46.0349C47.6917 32.5183 49.0349 33.8615 49.0349 35.5183V42.4873C49.0349 44.1441 47.6917 45.4873 46.0349 45.4873H39.0659C37.4091 45.4873 36.0659 44.1441 36.0659 42.4873V35.5183Z" fill="#5084C1"/>
<path d="M29.3285 19.6117C29.3285 13.2854 24.3241 8.15723 18.1504 8.15723C11.9767 8.15723 6.94965 13.3259 6.97224 19.6522C6.98354 22.7951 8.22618 25.6371 10.237 27.6976C11.8016 29.3009 12.9426 31.2862 13.5187 33.474L14.4225 36.889H21.7484L22.6013 33.6535C23.1887 31.4193 24.3749 29.3993 25.9847 27.7728C28.0464 25.7007 29.3285 22.8125 29.3285 19.6117Z" fill="url(#paint0_linear)"/>
<path d="M19.8412 40.8941H16.2714C15.2604 40.8941 14.3905 40.1301 14.334 39.1577L14.0347 35.4071L22.1232 35.355L21.7786 39.1577C21.7221 40.1301 20.8523 40.8941 19.8412 40.8941Z" fill="#3B455A"/>
<path d="M21.3947 36.9878C19.1354 37.0863 16.8647 36.9704 14.6054 37.0689C14.402 37.0805 14.419 37.3759 14.6167 37.3875C16.876 37.4628 19.1467 37.318 21.406 37.3933C21.6659 37.4049 21.6546 36.9762 21.3947 36.9878Z" fill="#4F586B"/>
<path d="M21.3947 37.9949C19.1354 38.0934 16.8647 37.9775 14.6054 38.076C14.402 38.0876 14.419 38.3831 14.6167 38.3947C16.876 38.47 19.1467 38.3251 21.406 38.4004C21.6659 38.412 21.6546 37.9833 21.3947 37.9949Z" fill="#4F586B"/>
<path fill-rule="evenodd" clip-rule="evenodd" d="M19.0615 2.33485C19.0615 3.07573 18.6774 5.72667 18.2086 5.72667C17.7342 5.72667 17.3557 3.07573 17.3557 2.33485C17.3557 1.59398 17.7342 0.997803 18.2086 0.997803C18.6774 0.997803 19.0615 1.59398 19.0615 2.33485ZM29.7202 6.40927C29.1723 6.88969 27.4608 8.91553 27.7658 9.28597C28.0765 9.65062 30.285 8.22095 30.8329 7.74054C31.3808 7.26013 31.5729 6.57134 31.2622 6.20669C30.9572 5.83625 30.2681 5.92886 29.7202 6.40927ZM30.4866 17.8123C30.5431 18.2928 33.1583 18.3449 33.8756 18.2523C34.5873 18.1597 35.1183 17.6966 35.0618 17.2161C35.0053 16.7357 34.3783 16.4231 33.661 16.5157C32.9493 16.6083 30.4245 17.3319 30.4866 17.8123ZM7.66813 5.52982C8.23298 5.98709 10.0405 7.93191 9.74676 8.31393C9.45304 8.69595 7.18237 7.37046 6.61188 6.91319C6.04703 6.45593 5.82109 5.77871 6.11481 5.39669C6.40853 5.01468 7.10329 5.07256 7.66813 5.52982ZM5.64608 15.9138C5.5896 16.3942 2.97438 16.4463 2.25703 16.3537C1.53968 16.2611 1.00873 15.798 1.07086 15.3176C1.12734 14.8372 1.75432 14.5246 2.47167 14.6172C3.18337 14.7098 5.70821 15.4333 5.64608 15.9138Z" fill="url(#paint1_linear)"/>
<path d="M22.9752 25.4458C22.6137 25.1738 22.337 24.8265 22.1336 24.4271C22.5403 23.912 22.7154 23.2232 22.7945 22.5808C22.8397 22.1872 22.851 21.7936 22.8566 21.4C22.8622 21.018 22.8114 20.6996 22.5008 20.4623C22.2183 20.254 21.8455 20.4392 21.6309 20.6476C21.3824 20.8849 21.2638 21.2727 21.1677 21.591C20.9757 22.2393 20.9757 22.9396 21.1 23.5994C21.1395 23.831 21.2073 24.0567 21.2864 24.2766C21.1282 24.404 20.9475 24.5024 20.7498 24.5718C20.1397 24.7744 19.6766 24.4098 19.3941 23.8773C19.349 23.7904 19.3038 23.6978 19.2642 23.5994C19.3151 23.4663 19.3603 23.3332 19.3998 23.2059C19.6088 22.5692 19.7218 21.9093 19.7726 21.2437C19.8178 20.6939 19.8291 20.034 19.3151 19.7041C19.1513 19.5999 18.9592 19.6809 18.8576 19.8256C18.1007 20.9022 18.1459 22.3261 18.5525 23.5474C18.4226 23.8715 18.2645 24.184 18.095 24.4908C17.903 24.8265 17.5415 25.3416 17.1009 25.278C16.6942 25.2143 16.3666 24.6934 16.1633 24.3635C16.0164 24.1262 15.8978 23.8715 15.8074 23.6052C15.8583 23.4663 15.9091 23.3216 15.9543 23.1827C16.1294 22.6213 16.2254 22.0309 16.2706 21.4405C16.3101 20.9485 16.3214 20.2598 15.8018 20.0224C15.6493 19.953 15.4233 19.9588 15.3443 20.144C14.8867 21.1916 14.7964 22.3434 15.0844 23.4605C15.0957 23.501 15.107 23.5358 15.1183 23.5705C14.802 24.3982 14.3163 25.168 13.7288 25.822C13.4634 26.1172 13.8813 26.5456 14.1581 26.2619C14.6834 25.7121 15.1183 25.0928 15.4572 24.4156C15.5589 24.6123 15.6719 24.7976 15.7961 24.977C16.1407 25.4632 16.57 25.9204 17.1856 25.9494C17.7618 25.9841 18.2306 25.4863 18.5412 25.0522C18.6881 24.8439 18.8237 24.6181 18.9366 24.3866C19.219 24.8497 19.6257 25.2143 20.1793 25.2895C20.6876 25.3648 21.1847 25.2027 21.6027 24.9133C21.8455 25.3416 22.1619 25.7237 22.5346 26.042C22.9357 26.4124 23.4158 25.7757 22.9752 25.4458ZM19.123 20.6649C19.1456 20.937 19.0835 21.2784 19.0722 21.4463C19.044 21.7473 18.9931 22.054 18.9253 22.3492C18.8519 21.7646 18.9027 21.1627 19.123 20.6649ZM21.7326 22.3955C21.7552 22.1119 21.8286 21.8283 21.919 21.5621C21.9585 21.4405 22.015 21.3247 22.0828 21.2148C22.0884 21.209 22.111 21.1743 22.1336 21.1453C22.1393 21.1627 22.1449 21.1916 22.1449 21.2264C22.1788 21.9209 22.1223 22.6734 21.9133 23.3332C21.8851 23.4142 21.8568 23.4953 21.8229 23.5705C21.7382 23.1885 21.7043 22.7833 21.7326 22.3955Z" fill="white"/>
<path d="M23.6096 23.7608C22.4235 27.4768 21.1695 31.1754 19.8252 34.8392C19.6671 35.2791 20.3223 35.5454 20.4861 35.1055C21.8247 31.4358 23.0674 27.7372 24.1857 23.9923C24.2987 23.6045 23.7339 23.3672 23.6096 23.7608Z" fill="white"/>
<path d="M12.799 23.5244C13.7479 27.3156 14.6347 31.1241 15.4198 34.95C15.5158 35.4073 16.2106 35.2742 16.1146 34.8169C15.3181 30.9852 14.4257 27.1825 13.4033 23.4086C13.3017 23.0151 12.7029 23.1308 12.799 23.5244Z" fill="white"/>
<path fill-rule="evenodd" clip-rule="evenodd" d="M21.9231 35.5181H3.06592V54.3752H21.9231V35.5181ZM3.06592 32.5181C1.40906 32.5181 0.065918 33.8612 0.065918 35.5181V54.3752C0.065918 56.0321 1.40907 57.3752 3.06592 57.3752H21.9231C23.5799 57.3752 24.9231 56.0321 24.9231 54.3752V35.5181C24.9231 33.8612 23.5799 32.5181 21.9231 32.5181H3.06592Z" fill="#3FC0AD"/>
<path fill-rule="evenodd" clip-rule="evenodd" d="M50.0352 37.5181H43.0352C42.4829 37.5181 42.0352 37.9658 42.0352 38.5181V45.5181C42.0352 46.0704 42.4829 46.5181 43.0352 46.5181H50.0352C50.5874 46.5181 51.0352 46.0704 51.0352 45.5181V38.5181C51.0352 37.9658 50.5874 37.5181 50.0352 37.5181ZM43.0352 35.5181C41.3783 35.5181 40.0352 36.8612 40.0352 38.5181V45.5181C40.0352 47.1749 41.3783 48.5181 43.0352 48.5181H50.0352C51.692 48.5181 53.0352 47.1749 53.0352 45.5181V38.5181C53.0352 36.8612 51.692 35.5181 50.0352 35.5181H43.0352Z" fill="#5084C1"/>
<path fill-rule="evenodd" clip-rule="evenodd" d="M49.5347 8.28945C49.6051 8.20876 49.6791 8.13009 49.7568 8.05364C51.4129 6.42306 54.0977 6.42239 55.7548 8.05162C55.7554 8.0523 55.7561 8.05297 55.7568 8.05364C55.7575 8.05431 55.7582 8.05498 55.7589 8.05566C57.4137 9.68707 57.413 12.3303 55.7568 13.9609C55.6792 14.0374 55.5992 14.1102 55.5173 14.1795L49.5347 8.28945Z" fill="#FC7370"/>
<path d="M48.144 9.64526L54.1441 15.5525L53.221 16.4614L47.221 10.5541L48.144 9.64526Z" fill="#5084C1"/>
<path d="M48.0303 9.40869L54.0303 15.316L53.1072 16.2248L47.1072 10.3175L48.0303 9.40869Z" fill="#FC7370"/>
<path d="M49.5308 15.5524L51.8385 17.8244L38.4538 31.0022L37.2614 27.632L49.5308 15.5524Z" fill="#4F586B"/>
<path d="M48.144 14.1892L45.8363 11.9172L32.4516 25.095L35.8747 26.2689L48.144 14.1892Z" fill="#4F586B"/>
<path d="M31.0651 26.4581L35.4497 28.0485L37.0651 32.3654L28.0651 35.319L31.0651 26.4581Z" fill="#FC7370"/>
<defs>
<linearGradient id="paint0_linear" x1="27.9313" y1="33.5848" x2="5.64524" y2="19.4209" gradientUnits="userSpaceOnUse">
<stop stop-color="#FFC20A"/>
<stop offset="1" stop-color="#FFEFBE"/>
<stop offset="1" stop-color="#FFFAEC"/>
</linearGradient>
<linearGradient id="paint1_linear" x1="32.9409" y1="16.3016" x2="19.6462" y2="-5.04921" gradientUnits="userSpaceOnUse">
<stop stop-color="#FFC20A"/>
<stop offset="1" stop-color="#FFEFBE"/>
<stop offset="1" stop-color="#FFFAEC"/>
</linearGradient>
</defs>
</svg>
