<svg width="62" height="63" viewBox="0 0 62 63" fill="none" xmlns="http://www.w3.org/2000/svg">
<g clip-path="url(#clip0)">
<path d="M22.7108 31.5176L23.3167 31.0631C24.3958 30.2537 24.6145 28.7228 23.8052 27.6435C22.9958 26.564 21.4643 26.3451 20.3849 27.1548L19.7798 27.6087C19.2531 28.0036 18.5404 28.0421 17.9739 27.7065C17.4074 27.371 17.099 26.7272 17.1916 26.0755L17.2985 25.3262C17.4891 23.9909 16.5613 22.7539 15.226 22.5631C13.8905 22.3723 12.6532 23.3003 12.4625 24.6359L12.3557 25.3841C12.2631 26.0366 11.7865 26.5686 11.1485 26.732C10.5104 26.8958 9.83663 26.6588 9.44149 26.1316L8.98794 25.5266C8.17856 24.4469 6.64702 24.228 5.56762 25.0378C4.48886 25.8471 4.27008 27.3775 5.07888 28.4567L5.53346 29.0632C5.9282 29.5904 5.96676 30.3029 5.63125 30.8695C5.29574 31.4361 4.65215 31.7447 4.00062 31.652L3.2525 31.5452C1.91694 31.3545 0.679637 32.2825 0.488764 33.618C0.29785 34.9539 1.22611 36.1915 2.56196 36.3822L3.31012 36.489C3.96206 36.582 4.49394 37.0587 4.65732 37.6969C4.8207 38.3351 4.58378 39.009 4.05667 39.4042L3.45122 39.8585C2.37229 40.6681 2.15372 42.199 2.96298 43.2782C3.77248 44.3576 5.30384 44.5764 6.38325 43.7668L6.98759 43.3135C7.51431 42.9183 8.22746 42.8794 8.79433 43.2149C9.3608 43.5505 9.66967 44.1947 9.57665 44.8467L9.46919 45.593C9.27678 46.9291 10.2047 48.1679 11.541 48.359C12.8754 48.5498 14.1121 47.6234 14.3042 46.2891L14.4125 45.5366C14.5055 44.8845 14.9822 44.3529 15.6202 44.1895C16.2582 44.0257 16.932 44.263 17.3267 44.7899L17.7811 45.3955C18.5905 46.4745 20.1215 46.6931 21.2005 45.8835C22.2796 45.074 22.498 43.543 21.6884 42.464L21.234 41.8583C20.8388 41.3315 20.7999 40.6181 21.1354 40.0512C21.4709 39.4846 22.1149 39.1756 22.7668 39.2691L23.5146 39.3759C24.8503 39.5668 26.0878 38.6388 26.2787 37.3031C26.4696 35.9674 25.5416 34.7299 24.2059 34.539L23.4581 34.4321C22.8066 34.3387 22.2751 33.8623 22.1113 33.2242C21.9479 32.5864 22.1845 31.9129 22.7108 31.5176ZM13.3841 41.1605C10.2365 41.1605 7.68524 38.6086 7.68524 35.4603C7.68524 32.3125 10.2365 29.7602 13.3841 29.7602C16.5317 29.7602 19.083 32.3125 19.083 35.4603C19.083 38.6086 16.5317 41.1605 13.3841 41.1605Z" fill="#3FC0AD"/>
<path d="M25.8452 59.3406C25.8452 61.0959 27.2675 62.519 29.0229 62.519H33.2599C35.0147 62.519 36.4376 61.0959 36.4376 59.3406V52.9838H25.8452V59.3406Z" fill="#E2DFEF"/>
<path d="M50.206 25.4375C50.205 16.2938 43.7156 8.43726 34.7385 6.71148C25.7614 4.9857 16.8225 9.87541 13.4327 18.3672C10.043 26.8591 13.1555 36.5624 20.8521 41.4956C22.6157 42.5892 23.6993 44.508 23.7251 46.5835V50.8648C23.7251 52.6201 25.1474 54.0432 26.9028 54.0432H35.3767C37.1316 54.0432 38.5544 52.6201 38.5544 50.8648V46.6714C38.5813 44.5468 39.6866 42.582 41.4885 41.4563C46.9264 37.9447 50.2096 31.9117 50.206 25.4375Z" fill="url(#paint0_linear)"/>
<path d="M38.3622 31.8964C37.7724 31.3096 37.3208 30.5605 36.989 29.6991C37.6526 28.588 37.9383 27.1023 38.0673 25.7165C38.141 24.8676 38.1595 24.0186 38.1687 23.1697C38.1779 22.3457 38.095 21.659 37.5881 21.1472C37.1273 20.6977 36.519 21.0972 36.1688 21.5467C35.7633 22.0585 35.5698 22.895 35.4131 23.5816C35.0997 24.9799 35.0997 26.4906 35.3025 27.9138C35.367 28.4132 35.4776 28.9001 35.6066 29.3745C35.3486 29.6492 35.0537 29.8614 34.7311 30.0112C33.7358 30.4482 32.9801 29.6616 32.5193 28.5131C32.4455 28.3258 32.3718 28.126 32.3073 27.9138C32.3902 27.6267 32.464 27.3395 32.5285 27.0649C32.8695 25.6915 33.0538 24.2683 33.1367 22.8326C33.2105 21.6465 33.2289 20.2233 32.3902 19.5117C32.123 19.2869 31.8096 19.4617 31.6437 19.7738C30.4088 22.096 30.4825 25.1672 31.1461 27.8014C30.9341 28.5006 30.676 29.1747 30.3996 29.8364C30.0862 30.5605 29.4964 31.6717 28.7775 31.5343C28.114 31.397 27.5794 30.2734 27.2477 29.5618C27.0081 29.0499 26.8145 28.5006 26.6671 27.9263C26.75 27.6267 26.8329 27.3145 26.9067 27.0149C27.1924 25.8039 27.349 24.5305 27.4228 23.257C27.4873 22.1959 27.5057 20.7102 26.6578 20.1983C26.409 20.0485 26.0404 20.061 25.9113 20.4605C25.1648 22.7202 25.0174 25.2046 25.4874 27.6142C25.5058 27.7016 25.5243 27.7765 25.5427 27.8514C25.0266 29.6367 24.234 31.2971 23.2756 32.7079C22.8424 33.3446 23.5244 34.2685 23.976 33.6567C24.8331 32.4707 25.5427 31.1348 26.0957 29.6741C26.2616 30.0986 26.4459 30.4981 26.6486 30.8851C27.2108 31.9338 27.9112 32.9201 28.9158 32.9825C29.8558 33.0575 30.6207 31.9838 31.1276 31.0474C31.3672 30.598 31.5884 30.1111 31.7728 29.6117C32.2336 30.6105 32.8971 31.397 33.8003 31.5593C34.6297 31.7216 35.4407 31.372 36.1227 30.7478C36.519 31.6717 37.0351 32.4956 37.6434 33.1823C38.2977 33.9813 39.0811 32.608 38.3622 31.8964ZM32.0769 21.5841C32.1137 22.1709 32.0124 22.9075 31.9939 23.2695C31.9479 23.9187 31.8649 24.5804 31.7543 25.2171C31.6345 23.9562 31.7175 22.6578 32.0769 21.5841ZM36.3347 25.317C36.3716 24.7053 36.4914 24.0935 36.6388 23.5192C36.7033 23.257 36.7955 23.0074 36.9061 22.7701C36.9153 22.7577 36.9522 22.6828 36.989 22.6203C36.9983 22.6578 37.0075 22.7202 37.0075 22.7951C37.0628 24.2933 36.9706 25.9163 36.6296 27.3395C36.5835 27.5143 36.5375 27.6891 36.4822 27.8514C36.3439 27.0274 36.2886 26.1535 36.3347 25.317Z" fill="white"/>
<path d="M39.3957 28.2626C37.4604 36.2778 35.4144 44.2555 33.221 52.1584C32.963 53.1072 34.032 53.6815 34.2993 52.7327C36.4835 44.8173 38.511 36.8396 40.3358 28.7619C40.5201 27.9255 39.5985 27.4136 39.3957 28.2626Z" fill="white"/>
<path d="M21.7552 27.7517C23.3035 35.9292 24.7505 44.1441 26.0315 52.3964C26.1882 53.3827 27.3218 53.0956 27.1651 52.1093C25.8656 43.8444 24.4095 35.642 22.7414 27.502C22.5755 26.6531 21.5986 26.9027 21.7552 27.7517Z" fill="white"/>
<path d="M56.7656 14.2288L57.5539 13.6375C58.9579 12.5843 59.2425 10.5925 58.1896 9.18828C57.1364 7.78368 55.1439 7.49899 53.7395 8.55246L52.9523 9.14301C52.267 9.65671 51.3396 9.70689 50.6026 9.27027C49.8656 8.83366 49.4642 7.99611 49.5847 7.14822L49.7239 6.17322C49.9718 4.43594 48.7647 2.82654 47.0274 2.57829C45.2898 2.32998 43.6799 3.53749 43.4319 5.27518L43.2929 6.2486C43.1724 7.09753 42.5523 7.7897 41.7222 8.00232C40.892 8.21546 40.0154 7.90713 39.5013 7.22117L38.9112 6.43398C37.8581 5.02921 35.8655 4.74445 34.4611 5.79804C33.0575 6.85101 32.7729 8.8422 33.8252 10.2462L34.4166 11.0354C34.9302 11.7213 34.9804 12.6484 34.5439 13.3856C34.1073 14.1227 33.27 14.5242 32.4223 14.4036L31.4489 14.2647C29.7113 14.0166 28.1014 15.224 27.8531 16.9616C27.6047 18.6996 28.8124 20.3098 30.5505 20.5579L31.5239 20.6969C32.3721 20.8179 33.0641 21.4382 33.2767 22.2685C33.4893 23.0988 33.181 23.9756 32.4952 24.4898L31.7075 25.0809C30.3037 26.1343 30.0193 28.126 31.0722 29.5301C32.1255 30.9346 34.1179 31.2193 35.5223 30.1659L36.3086 29.5761C36.9939 29.0619 37.9217 29.0112 38.6593 29.4479C39.3963 29.8845 39.7982 30.7225 39.6771 31.5709L39.5373 32.5419C39.287 34.2802 40.4942 35.892 42.2329 36.1406C43.9691 36.3889 45.5781 35.1835 45.828 33.4475L45.9689 32.4685C46.09 31.6201 46.7101 30.9284 47.5402 30.7158C48.3703 30.5027 49.247 30.8115 49.7606 31.497L50.3517 32.2849C51.4049 33.6888 53.3968 33.9731 54.8007 32.9199C56.2046 31.8666 56.4888 29.8746 55.4355 28.4708L54.8442 27.6828C54.3301 26.9973 54.2794 26.0692 54.7159 25.3315C55.1524 24.5943 55.9903 24.1924 56.8385 24.314L57.8115 24.453C59.5493 24.7013 61.1594 23.4939 61.4078 21.7561C61.6562 20.0183 60.4487 18.4081 58.7109 18.1598L57.738 18.0208C56.8903 17.8992 56.1988 17.2794 55.9857 16.4491C55.7731 15.6194 56.0808 14.743 56.7656 14.2288ZM44.6309 26.7749C40.5357 26.7749 37.2163 23.4547 37.2163 19.3585C37.2163 15.2629 40.5357 11.9422 44.6309 11.9422C48.7262 11.9422 52.0456 15.2629 52.0456 19.3585C52.0456 23.4547 48.7262 26.7749 44.6309 26.7749Z" fill="#5084C1"/>
<path d="M25.8452 56.1621H36.4376V58.2806H25.8452V56.1621Z" fill="#B5ABDE"/>
<path d="M52.3214 40.2703H57.6176C58.2026 40.2703 58.6769 40.744 58.6769 41.3295C58.6769 41.9145 58.2026 42.3887 57.6176 42.3887H52.3214C51.7365 42.3887 51.2622 41.9145 51.2622 41.3295C51.2622 40.744 51.7365 40.2703 52.3214 40.2703Z" fill="url(#paint1_linear)"/>
<path d="M50.206 46.6276C50.5805 46.178 51.2482 46.117 51.6976 46.4915L56.4259 50.4319C56.8754 50.8065 56.9364 51.4743 56.5619 51.9239C56.187 52.3735 55.5193 52.4345 55.0698 52.06L50.3415 48.1195C49.8921 47.745 49.8316 47.0771 50.206 46.6276Z" fill="url(#paint2_linear)"/>
<path d="M45.9655 48.746C46.5504 48.746 47.0247 49.2198 47.0247 49.8054V55.1028C47.0247 55.6879 46.5504 56.1623 45.9655 56.1623C45.3805 56.1623 44.9062 55.6879 44.9062 55.1028V49.8054C44.9062 49.2198 45.3805 48.746 45.9655 48.746Z" fill="url(#paint3_linear)"/>
<path d="M1.19115 18.8538L7.60967 17.2504C8.17756 17.1087 8.75217 17.4537 8.89389 18.0211C9.0356 18.5885 8.69063 19.1631 8.12274 19.3048L1.70422 20.9081C1.13633 21.0498 0.561712 20.7049 0.419998 20.1375C0.278284 19.5701 0.62326 18.9955 1.19115 18.8538Z" fill="url(#paint4_linear)"/>
<path d="M2.53804 7.42709C2.87785 6.95115 3.53935 6.84148 4.01518 7.18136L9.70547 11.247C10.1818 11.5869 10.292 12.2485 9.95218 12.7245C9.61238 13.2004 8.95087 13.3106 8.47504 12.9702L2.78475 8.90456C2.30841 8.56468 2.19824 7.90303 2.53804 7.42709Z" fill="url(#paint5_linear)"/>
<path d="M12.0257 1.06864C12.5925 0.923795 13.1692 1.26574 13.314 1.83273L14.9556 8.25526C15.1005 8.82224 14.7586 9.39957 14.1917 9.54442C13.6249 9.68927 13.0482 9.34681 12.9034 8.78034L11.2618 2.35781C11.1169 1.79082 11.4588 1.21349 12.0257 1.06864Z" fill="url(#paint6_linear)"/>
</g>
<defs>
<linearGradient id="paint0_linear" x1="47.8226" y1="48.5604" x2="10.4182" y2="24.1232" gradientUnits="userSpaceOnUse">
<stop stop-color="#FFC20A"/>
<stop offset="1" stop-color="#FFEFBE"/>
<stop offset="1" stop-color="#FFFAEC"/>
</linearGradient>
<linearGradient id="paint1_linear" x1="58.2134" y1="42.1451" x2="57.0822" y2="38.911" gradientUnits="userSpaceOnUse">
<stop stop-color="#FFC20A"/>
<stop offset="1" stop-color="#FFEFBE"/>
<stop offset="1" stop-color="#FFFAEC"/>
</linearGradient>
<linearGradient id="paint2_linear" x1="56.3794" y1="51.6086" x2="51.205" y2="46.8328" gradientUnits="userSpaceOnUse">
<stop stop-color="#FFC20A"/>
<stop offset="1" stop-color="#FFEFBE"/>
<stop offset="1" stop-color="#FFFAEC"/>
</linearGradient>
<linearGradient id="paint3_linear" x1="46.8923" y1="55.3094" x2="44.0806" y2="54.6534" gradientUnits="userSpaceOnUse">
<stop stop-color="#FFC20A"/>
<stop offset="1" stop-color="#FFEFBE"/>
<stop offset="1" stop-color="#FFFAEC"/>
</linearGradient>
<linearGradient id="paint4_linear" x1="8.39211" y1="20.512" x2="5.7437" y2="15.5491" gradientUnits="userSpaceOnUse">
<stop stop-color="#FFC20A"/>
<stop offset="1" stop-color="#FFEFBE"/>
<stop offset="1" stop-color="#FFFAEC"/>
</linearGradient>
<linearGradient id="paint5_linear" x1="9.66137" y1="12.4567" x2="4.366" y2="6.99525" gradientUnits="userSpaceOnUse">
<stop stop-color="#FFC20A"/>
<stop offset="1" stop-color="#FFEFBE"/>
<stop offset="1" stop-color="#FFFAEC"/>
</linearGradient>
<linearGradient id="paint6_linear" x1="14.7538" y1="8.59528" x2="10.0937" y2="6.91968" gradientUnits="userSpaceOnUse">
<stop stop-color="#FFC20A"/>
<stop offset="1" stop-color="#FFEFBE"/>
<stop offset="1" stop-color="#FFFAEC"/>
</linearGradient>
<clipPath id="clip0">
<rect width="61.7143" height="61.7143" fill="white" transform="translate(0.143066 0.895752)"/>
</clipPath>
</defs>
</svg>
